<svg width="20" height="44" viewBox="0 0 20 44" fill="none" xmlns="http://www.w3.org/2000/svg">
<path d="M11.5596 43.4837C12.1864 43.8455 12.9878 43.6307 13.3496 43.0039L19.2457 32.7896C19.6075 32.1627 19.3927 31.3613 18.7659 30.9995C18.1391 30.6377 17.3377 30.8525 16.9758 31.4793L11.7349 40.5587L2.65545 35.3178C2.02865 34.956 1.22722 35.1708 0.865406 35.7976C0.503593 36.4244 0.718411 37.2258 1.34521 37.5876L11.5596 43.4837ZM11.7036 0.422161C6.49712 11.0197 6.47328 25.9905 10.9489 42.6881L13.4804 42.0095C9.07923 25.5896 9.25158 11.3568 14.0559 1.57784L11.7036 0.422161Z" fill="black"/>
</svg>
